<?xml version="1.0" encoding="utf-8"?>
<!-- Generator: Adobe Illustrator 24.1.3, SVG Export Plug-In . SVG Version: 6.00 Build 0)  -->
<svg version="1.1" id="Capa_1" xmlns="http://www.w3.org/2000/svg" xmlns:xlink="http://www.w3.org/1999/xlink" x="0px" y="0px"
	 viewBox="0 0 160 91" style="enable-background:new 0 0 160 91;" xml:space="preserve">
<style type="text/css">
	.st0{fill:#00ADC6;}
	.st1{fill:#1E3D8E;}
</style>
<g>
	<path class="st0" d="M133.05,62.3c0.05,0.01,0.09,0.05,0.08,0.16c-0.53,0.7-1.42,1.5-2.56,2.32c-1.12,0.8-2.45,1.59-3.83,2.25
		c-1.46,0.71-2.74,1.3-4.08,1.66c-1.52,0.4-2.85,0.54-3.93,0.42c-0.88-0.09-1.61-0.35-2.18-0.8c-0.02-0.02-0.04-0.07-0.04-0.11
		c0.01-0.06,0.06-0.11,0.14-0.13c3.39-0.56,6.51-1.42,9.41-2.42C128.91,64.67,131.29,63.51,133.05,62.3"/>
	<path class="st0" d="M132.77,60.67c-1.84,1.1-5.6,2.71-8.89,3.66c-3.92,1.13-7.06,1.68-9.17,1.39c-1.85-0.27-2.77-1.14-3.05-1.45
		c-0.05-0.04-0.1-0.08-0.08-0.14c0.01-0.06,0.06-0.12,0.15-0.13l0.71-0.05c1.56-0.12,4.37-0.2,7.64-0.69
		c3.79-0.56,9.86-1.67,12.64-2.78C132.78,60.51,132.81,60.56,132.77,60.67"/>
	<path class="st0" d="M132.46,65.5c0.05,0,0.1,0.04,0.08,0.14c-0.68,1.64-1.45,2.87-2.97,3.64c-2.66,1.35-4.06,0.6-4.24,0.51
		c-0.04-0.03-0.09-0.1-0.09-0.16c0.01-0.06,0.05-0.11,0.11-0.12c1.16-0.35,4.65-1.66,7.02-4C132.41,65.5,132.43,65.5,132.46,65.5"/>
	<path class="st0" d="M150.01,40.29c0.05,0.02,0.06,0.05,0.06,0.1c-0.01,0.05-0.05,0.08-0.13,0.08c-0.8-0.23-2.49-0.69-4.63-1.26
		c-4.91-1.33-23.41-6.2-23.71-6.28l-0.09-0.02c-1.1-0.36-2.01-0.89-2.72-1.65c-0.21-0.21-0.4-0.44-0.57-0.71
		c-0.61-0.95-0.78-2.31-0.8-2.57c-0.01-0.03,0-0.09,0.04-0.12c0.03-0.04,0.07-0.04,0.19-0.03l3.02,1.16
		C127.85,31.74,146.91,39.04,150.01,40.29"/>
	<path class="st0" d="M146.91,37.37c0.02,0.12-0.03,0.16-0.14,0.14c-1.07-0.54-3.54-1.71-6.01-2.92c-2.1-1.03-16.38-7.69-17.35-8.18
		l-1.7-0.87c-0.25-0.12-0.49-0.27-0.72-0.4c-0.68-0.41-1.03-0.71-1.39-1.16c-0.3-0.39-0.54-0.87-0.72-1.32
		c-0.41-1.02-0.4-2.37-0.38-2.62c0-0.02,0.01-0.07,0.07-0.09c0.03-0.04,0.08-0.04,0.17,0l1.78,1.08l0.95,0.58l5.24,3.16
		C134.03,29.28,144.24,35.71,146.91,37.37"/>
	<path class="st0" d="M152.17,42.25c0.05,0.01,0.08,0.05,0.08,0.1c0,0.04-0.04,0.08-0.12,0.08c-2.82-0.2-28.13-1.85-28.13-1.85
		c-0.23-0.02-0.42-0.04-0.65-0.12c-2.01-0.62-3.18-2.17-3.67-3.71c-0.01-0.06-0.03-0.12,0-0.17c0.04-0.05,0.1-0.08,0.16-0.08
		C119.84,36.5,149.7,41.8,152.17,42.25"/>
	<path class="st0" d="M150.92,43.95c0.05,0,0.11,0.06,0.11,0.11c-0.02,0.04-0.05,0.08-0.09,0.08c-1.05,0.17-20.28,2.87-20.41,2.89
		c-0.12,0.02-0.23,0.03-0.35,0.03c-0.11,0-0.22,0-0.33,0c-0.92-0.1-1.8-0.54-2.61-1.38c-0.41-0.43-0.78-1.13-0.88-1.41
		c-0.03-0.04-0.03-0.08,0-0.12c0.04-0.05,0.09-0.07,0.13-0.08c0,0,6.46-0.04,10.54-0.05c3.03,0,6.27-0.02,8.9-0.03
		C148.21,43.98,150.03,43.98,150.92,43.95"/>
	<path class="st0" d="M149.48,45.94c0.04,0,0.11-0.02,0.13,0.03c0.01,0.03,0.06,0.08-0.04,0.14c-0.61,0.42-14.43,6.18-14.57,6.23
		c-0.76,0.26-1.61,0.4-2.23-0.64c-0.26-0.43-0.48-0.79-0.58-0.95c-0.04-0.06-0.19-0.23,0.21-0.33c0,0,3.9-1.06,7.36-1.96
		C143.76,47.43,148.29,46.27,149.48,45.94"/>
	<path class="st0" d="M143.41,55.5c0.06,0.01,0.1,0.06,0.07,0.17c-1.34,1.54-6.25,6.99-8.48,9.37c-0.23,0.24-0.35,0.14-0.26-0.1
		c0,0,0.42-1.07,0.6-1.89c0.11-0.5,0.21-0.9,0.49-1.13c2.88-2.44,5.65-4.87,7.49-6.4L143.41,55.5z"/>
	<path class="st0" d="M147.94,48.62c0.06,0.02,0.08,0.05,0.06,0.18c-1.34,1.13-7.52,6.32-10.84,9.06l-0.11,0.09
		c-0.96,0.73-1.61,0.91-1.73-0.69c-0.03-0.38-0.07-0.7-0.07-0.7c-0.07-0.34,0.04-0.34,0.16-0.41c1.08-0.68,3.16-1.85,4.81-2.83
		C143.17,51.54,146.61,49.44,147.94,48.62"/>
	<path class="st1" d="M93.5,31.3L93.5,31.3l-1.25,0.01c-6.62,0.01-12.84,4.87-13.1,14.36C78.9,54.29,83.4,60.33,91,60.33
		c6.26,0,8.46-4.36,8.46-4.36c0.35,2.91,1.93,3.8,5.08,3.8V35.36h0V31.3H93.5z M99.16,48.08c0,3.94-2.26,7.69-7.18,7.69
		c-4.39,0-7.54-2.94-7.34-10.05c0.19-6.81,3.47-9.81,7.82-9.81c0.33,0,0.66-0.02,0.96-0.05v0.01h5.74V48.08z"/>
	<path class="st1" d="M50.1,31.3l0.02,19.75c0,2.88-2.38,4.33-5.53,4.33c-3.31,0-5.49-1.45-5.49-4.33l-0.03-14.77
		c-0.01-4.21-2.65-4.98-4.96-4.98v20.96c0,5.29,4.76,7.89,10.32,7.89c5.39,0,10.67-2.6,10.67-7.89L55.1,36.92
		C55.1,32.78,53.55,31.3,50.1,31.3"/>
	<path class="st1" d="M72.22,31.3c-6.17,0-10.41,3.56-10.41,10.89v17.58h4.97V42.02c0-3.78,2.03-6.04,5.87-6.04h1.48
		c4.35,0,5.06-2.25,5.06-4.68H72.22z"/>
	<path class="st1" d="M22.33,44.06l-6.09-1.66c-1.68-0.47-3.2-1.2-3.2-3.24c0-2.13,1.28-3.17,3.98-3.17h5.42
		c2.4,0,5.25-0.79,5.25-4.68L17.5,31.31c-6.28,0.01-9.86,3.18-9.86,7.71c0,4.22,2.68,6.6,7.46,7.87l5.3,1.4
		c2.19,0.59,2.97,1.96,2.97,3.36c0,2.15-1.34,3.43-4.64,3.45L8.57,55.17v4.61H18.9c6.28,0,9.87-3.37,9.87-7.79
		C28.77,47.53,27.01,45.33,22.33,44.06"/>
</g>
</svg>
